<?xml version="1.0" encoding="UTF-8"?>
<svg width="86px" height="86px" viewBox="0 0 86 86" version="1.1" xmlns="http://www.w3.org/2000/svg" xmlns:xlink="http://www.w3.org/1999/xlink">
    <!-- Generator: Sketch 46.2 (44496) - http://www.bohemiancoding.com/sketch -->
    <title>Close Button</title>
    <desc>Created with Sketch.</desc>
    <defs>
        <filter x="-78.9%" y="-78.9%" width="257.9%" height="257.9%" filterUnits="objectBoundingBox" id="filter-1">
            <feGaussianBlur stdDeviation="10" in="SourceGraphic"></feGaussianBlur>
        </filter>
    </defs>
    <g id="Page-1" stroke="none" stroke-width="1" fill="none" fill-rule="evenodd">
        <g id="Bite---B8---Landing---Terms" transform="translate(-1107.000000, -1046.000000)">
            <g id=":-Terms-(Light-Box)" transform="translate(0.000000, 894.000000)">
                <g id="Close-Button" transform="translate(1126.000000, 166.000000)">
                    <circle id="Shadow" fill-opacity="0.7" fill="#000000" filter="url(#filter-1)" cx="24" cy="29" r="19"></circle>
                    <circle id="Base" fill="#FFFFFF" cx="24" cy="24" r="24"></circle>
                    <path d="M22.0314582,24.5 L16.304145,30.2273132 C15.8986183,30.6328398 15.8986183,31.2903284 16.304145,31.695855 C16.7096716,32.1013817 17.3671602,32.1013817 17.7726868,31.695855 L23.5,25.9685418 L29.2273132,31.695855 C29.6328398,32.1013817 30.2903284,32.1013817 30.695855,31.695855 C31.1013817,31.2903284 31.1013817,30.6328398 30.695855,30.2273132 L24.9685418,24.5 L30.695855,18.7726868 C31.1013817,18.3671602 31.1013817,17.7096716 30.695855,17.304145 C30.2903284,16.8986183 29.6328398,16.8986183 29.2273132,17.304145 L23.5,23.0314582 L17.7726868,17.304145 C17.3671602,16.8986183 16.7096716,16.8986183 16.304145,17.304145 C15.8986183,17.7096716 15.8986183,18.3671602 16.304145,18.7726868 L22.0314582,24.5 Z" id="Rectangle-3" fill="#008738"></path>
                </g>
            </g>
        </g>
    </g>
</svg>