<?xml version="1.0" encoding="UTF-8"?>
<svg width="24px" height="55px" viewBox="0 0 24 55" version="1.1" xmlns="http://www.w3.org/2000/svg" xmlns:xlink="http://www.w3.org/1999/xlink">
    <!-- Generator: Sketch 45.1 (43504) - http://www.bohemiancoding.com/sketch -->
    <title>Scroll</title>
    <desc>Created with Sketch.</desc>
    <defs></defs>
    <g id="Page-1" stroke="none" stroke-width="1" fill="none" fill-rule="evenodd">
        <g id="Bite---B8---Landing---Index" transform="translate(-948.000000, -789.000000)" fill="#FFFFFF">
            <g id=":-Hero" transform="translate(0.000000, 94.000000)">
                <g id="Scroll" transform="translate(948.000000, 695.000000)">
                    <path d="M12,7.09488751e-05 C8.82766,-0.0106108336 5.78106031,1.24613223 3.53056241,3.49377146 C1.28006451,5.7414107 0.0100616019,8.79578713 0,11.9848281 L0,29.9368322 C-1.13686838e-13,36.5991358 5.372583,42 12,42 C18.627417,42 24,36.5991358 24,29.9368322 L24,11.9848281 C23.9902035,8.79570451 22.7202853,5.74117281 20.4697297,3.49347594 C18.219174,1.24577906 15.1724205,-0.0108778373 12,7.09488751e-05 Z M22,29.9368322 C22,35.4887519 17.5228475,39.989472 12,39.989472 C6.4771525,39.989472 2,35.4887519 2,29.9368322 L2,11.9848281 C2,6.43290846 6.4771525,1.93218832 12,1.93218832 C17.5228475,1.93218832 22,6.43290846 22,11.9848281 L22,29.9368322 Z M12,5.98943374 C11.4508244,5.98941607 11.0043934,6.43460684 11,6.9866556 L11,10.9795641 C11,11.5347561 11.4477153,11.9848281 12,11.9848281 C12.5522847,11.9848281 13,11.5347561 13,10.9795641 L13,6.98866613 C12.9967003,6.43583109 12.5499501,5.98942379 12,5.98943374 L12,5.98943374 Z" id="Mouse"></path>
                    <path d="M17.3494968,47.3295343 L12.0232418,52.6629728 L6.65147162,47.2836322 C6.27166798,46.9054559 5.66097512,46.9054559 5.28117148,47.2836322 C5.10115903,47.4648263 5,47.7107875 5,47.9672811 C5,48.2237748 5.10115903,48.469736 5.28117148,48.6509301 L11.338576,54.7168496 C11.7182638,55.0943835 12.3282199,55.0943835 12.7079077,54.7168496 L18.7188285,48.6968322 C18.898841,48.5156381 19,48.269677 19,48.0131833 C19,47.7566896 18.898841,47.5107285 18.7188285,47.3295343 C18.3406646,46.9482712 17.7276607,46.9482712 17.3494968,47.3295343 Z" id="Arrow"></path>
                </g>
            </g>
        </g>
    </g>
</svg>